# xmcd CD database file
#
# Track frame offsets:
#	150
#	24975
#	45075
#	68450
#	86175
#	108700
#	130737
#	147100
#	170187
#	201887
#	223975
#	243487
#
# Disc length: 3531 seconds
#
# Revision: 0
# Processed by: cddbd v1.5.1PL0 Copyright (c) Steve Scherf et al.
# Submitted via: CDex 1.51
#
DISCID=ac0dc90c
DTITLE=TAKURO - TAKURO 作品集　TAKURO INSTRUMENTAL COLLECTION
DYEAR=1998
DGENRE=Instrumental Rock
TTITLE0=HOWEVER
TTITLE1=SOUL LOVE
TTITLE2=Yes,Summerdays
TTITLE3=生きてく強さ
TTITLE4=都忘れ
TTITLE5=a Boy〜ずっと忘れない〜
TTITLE6=口唇
TTITLE7=真夏の扉
TTITLE8=ずっと2人で…
TTITLE9=グロリアス
TTITLE10=誘惑
TTITLE11=BELOVED
EXTD=YEAR: 1998
EXTT0=
EXTT1=
EXTT2=
EXTT3=
EXTT4=
EXTT5=
EXTT6=
EXTT7=
EXTT8=
EXTT9=
EXTT10=
EXTT11=
PLAYORDER=
